<svg id="visual" viewBox="0 0 900 600" width="900" height="600" xmlns="http://www.w3.org/2000/svg" xmlns:xlink="http://www.w3.org/1999/xlink" version="1.1"><rect x="0" y="0" width="900" height="600" fill="#fff"></rect><path d="M0 482L10.7 479.5C21.3 477 42.7 472 64.2 467C85.7 462 107.3 457 128.8 470.5C150.3 484 171.7 516 193 526.7C214.3 537.3 235.7 526.7 257 529C278.3 531.3 299.7 546.7 321.2 542C342.7 537.3 364.3 512.7 385.8 504.2C407.3 495.7 428.7 503.3 450 500.7C471.3 498 492.7 485 514.2 486.3C535.7 487.7 557.3 503.3 578.8 505.7C600.3 508 621.7 497 643 503.5C664.3 510 685.7 534 707 541.7C728.3 549.3 749.7 540.7 771.2 541.3C792.7 542 814.3 552 835.8 546.7C857.3 541.3 878.7 520.7 889.3 510.3L900 500L900 601L889.3 601C878.7 601 857.3 601 835.8 601C814.3 601 792.7 601 771.2 601C749.7 601 728.3 601 707 601C685.7 601 664.3 601 643 601C621.7 601 600.3 601 578.8 601C557.3 601 535.7 601 514.2 601C492.7 601 471.3 601 450 601C428.7 601 407.3 601 385.8 601C364.3 601 342.7 601 321.2 601C299.7 601 278.3 601 257 601C235.7 601 214.3 601 193 601C171.7 601 150.3 601 128.8 601C107.3 601 85.7 601 64.2 601C42.7 601 21.3 601 10.7 601L0 601Z" fill="#5850ec" stroke-linecap="round" stroke-linejoin="miter"></path></svg>